<?xml version="1.0" encoding="UTF-8" standalone="no"?>
<!-- Created with Inkscape (http://www.inkscape.org/) -->

<svg
   xmlns:dc="http://purl.org/dc/elements/1.1/"
   xmlns:cc="http://creativecommons.org/ns#"
   xmlns:rdf="http://www.w3.org/1999/02/22-rdf-syntax-ns#"
   xmlns:svg="http://www.w3.org/2000/svg"
   xmlns="http://www.w3.org/2000/svg"
   xmlns:sodipodi="http://sodipodi.sourceforge.net/DTD/sodipodi-0.dtd"
   xmlns:inkscape="http://www.inkscape.org/namespaces/inkscape"
   version="1.1"
   id="svg826"
   width="981.33331"
   height="1137.3333"
   viewBox="0 0 981.33331 1137.3333"
   sodipodi:docname="logo.svg"
   inkscape:version="0.92.2 (5c3e80d, 2017-08-06)">
  <metadata
     id="metadata832">
    <rdf:RDF>
      <cc:Work
         rdf:about="">
        <dc:format>image/svg+xml</dc:format>
        <dc:type
           rdf:resource="http://purl.org/dc/dcmitype/StillImage" />
        <dc:title></dc:title>
      </cc:Work>
    </rdf:RDF>
  </metadata>
  <defs
     id="defs830" />
  <sodipodi:namedview
     pagecolor="#ffffff"
     bordercolor="#666666"
     borderopacity="1"
     objecttolerance="10"
     gridtolerance="10"
     guidetolerance="10"
     inkscape:pageopacity="0"
     inkscape:pageshadow="2"
     inkscape:window-width="1366"
     inkscape:window-height="705"
     id="namedview828"
     showgrid="true"
     inkscape:zoom="0.58690696"
     inkscape:cx="307.95461"
     inkscape:cy="490.78886"
     inkscape:window-x="-8"
     inkscape:window-y="-8"
     inkscape:window-maximized="1"
     inkscape:current-layer="svg826">
    <inkscape:grid
       type="xygrid"
       id="grid1387" />
  </sodipodi:namedview>
  <path
     sodipodi:type="star"
     style="fill:#d40000;stroke:#800000;stroke-width:28.603;stroke-linejoin:miter;stroke-miterlimit:4;stroke-dasharray:none;stroke-dashoffset:0"
     id="path1393"
     sodipodi:sides="6"
     sodipodi:cx="460"
     sodipodi:cy="637.33325"
     sodipodi:r1="380"
     sodipodi:r2="329.08966"
     sodipodi:arg1="-1.5707963"
     sodipodi:arg2="-1.0471976"
     inkscape:flatsided="true"
     inkscape:rounded="0"
     inkscape:randomized="0"
     d="m 460.00001,257.33325 329.08965,190.00001 -10e-6,380 -329.08966,190.00004 -329.08965,-190.00006 1e-5,-380 z" />
  <text
     xml:space="preserve"
     style="font-style:normal;font-weight:normal;font-size:32px;line-height:1.25;font-family:sans-serif;letter-spacing:0px;word-spacing:0px;fill:#ffffff;fill-opacity:1;stroke:#ffffff"
     x="295.18463"
     y="863.41797"
     id="text1397"><tspan
       sodipodi:role="line"
       id="tspan1395"
       x="295.18463"
       y="863.41797"
       style="font-size:114.66666412px">rtadfr</tspan></text>
  <path
     style="fill:#ff8080;stroke:#ffffff;stroke-width:5.17180967;stroke-linecap:butt;stroke-linejoin:miter;stroke-miterlimit:4;stroke-dasharray:none;stroke-opacity:1"
     d="m 214,697.33325 c 14.23427,2.39588 9.53886,-0.69647 16.1887,5.51887 0.60764,0.56795 1.05431,1.34465 1.82294,1.70385 0.5435,0.25399 1.27945,-0.254 1.82295,0 0.76864,0.3592 1.21531,1.1359 1.82296,1.70385 0.60765,0.56794 1.43864,0.98544 1.82296,1.70384 0.27174,0.50799 -0.42968,1.30225 0,1.70385 0.42967,0.4016 1.39327,-0.4016 1.82295,0 0.8102,0.75727 -1.41785,3.21838 1.82295,1.70385 0.76864,-0.3592 1.05433,-1.34465 1.82295,-1.70385 0.54351,-0.25399 1.39329,0.4016 1.82297,0 4.42758,-4.13831 -0.54209,-2.50197 3.6459,-5.11154 1.13054,-0.70446 2.68512,-0.80584 3.64591,-1.70385 0.85935,-0.8032 -0.5435,-2.39172 0,-3.40769 0.38431,-0.71841 1.43864,-0.98545 1.82295,-1.70385 0.27175,-0.50799 -0.42968,-1.30225 0,-1.70385 0.42967,-0.4016 1.39328,0.4016 1.82295,0 1.22276,-1.14286 -1.22275,-2.26484 0,-3.4077 1.22276,-1.14285 2.42317,1.14286 3.64592,0 0.42967,-0.4016 -0.42968,-1.30224 0,-1.70384 0.42967,-0.4016 1.39327,-0.4016 1.82295,0 0.42966,0.4016 -0.42968,1.30224 0,1.70384 0.42966,0.40161 1.27945,-0.25399 1.82295,0 1.53725,0.71841 2.10867,2.68929 3.64592,3.4077 1.08699,0.50799 2.78655,-0.8032 3.6459,0 0.42967,0.4016 -0.42968,1.30225 0,1.70385 0.0586,0.0548 5.02675,0 5.46886,0 0.60765,0 1.39328,0.4016 1.82295,0 0.42968,-0.4016 -0.42967,-1.30225 0,-1.70385 0.42968,-0.4016 1.27946,0.25399 1.82296,0 0.76863,-0.3592 1.05433,-1.34465 1.82296,-1.70385 0.5435,-0.25399 1.63079,0.53881 1.82295,0 0.57646,-1.61641 -0.57647,-3.49513 0,-5.11154 0.38432,-1.07761 3.1024,1.01598 3.6459,0 0.5435,-1.01598 -0.3843,-2.33009 0,-3.4077 0.27175,-0.76198 1.43865,-0.98544 1.82297,-1.70384 0.27174,-0.50799 -0.42968,-1.30225 0,-1.70385 0.42966,-0.4016 1.39327,0.4016 1.82295,0 1.22274,-1.14286 -1.22275,-2.26484 0,-3.4077 0.42968,-0.4016 1.82295,-0.56795 1.82295,0 0,0.56795 -2.4306,0 -1.82295,0 1.21529,0 2.49296,-0.3592 3.6459,0 0.81525,0.254 1.05433,1.34465 1.82296,1.70385 0.5435,0.254 1.21531,0 1.82296,0 0.60764,0 1.27944,0.254 1.82294,0 0.76863,-0.3592 1.05434,-1.34464 1.82296,-1.70385 0.5435,-0.25399 1.39328,0.4016 1.82296,0 0.42967,-0.4016 -0.42968,-1.30224 0,-1.70384 0.42967,-0.4016 1.39328,0.4016 1.82295,0 0.42968,-0.4016 -0.42967,-1.30225 0,-1.70385 0.42968,-0.4016 1.39327,0.4016 1.82295,0 0.42967,-0.4016 -0.27174,-1.19586 0,-1.70385 1.09378,-2.04462 4.37509,-3.06692 5.46887,-5.11154 0.27174,-0.50799 -0.42968,-1.30225 0,-1.70385 0.42968,-0.4016 1.39327,0.4016 1.82294,0 0.42968,-0.4016 -0.42967,-1.30225 0,-1.70385 0.42968,-0.4016 1.39329,0.4016 1.82296,0 3.77175,-3.52532 -5.76375,0.13781 1.82296,-3.40769 0.54349,-0.254 1.2153,0 1.82296,0 0.60765,0 1.21529,0 1.82294,0 0.60765,0 1.27945,-0.254 1.82296,0 2.18754,1.02231 3.28132,4.08923 5.46886,5.11154 0.5435,0.254 1.27945,-0.25399 1.82295,0 0.76864,0.3592 1.05433,1.34465 1.82296,1.70385 0.5435,0.25399 1.39328,-0.4016 1.82296,0 0.42968,0.4016 -0.42968,1.30225 0,1.70385 0.0586,0.0548 5.02674,0 5.46886,0 0.60765,0 1.39328,0.4016 1.82296,0 0.42967,-0.4016 -0.42968,-1.30225 0,-1.70385 0.42967,-0.4016 1.27945,0.25399 1.82295,0 1.53725,-0.71841 2.10866,-2.68929 3.6459,-3.4077 0.5435,-0.25399 1.39329,0.4016 1.82296,0 0.85934,-0.8032 -0.85935,-2.60449 0,-3.40769 0.42967,-0.4016 1.27945,0.25399 1.82296,0 4.03065,-1.88365 0.5657,-1.05748 1.82294,-3.4077 0.96105,-1.79649 2.68487,-1.6112 3.64592,-3.40769 0.27174,-0.50799 -0.27176,-1.19586 0,-1.70385 0.3843,-0.7184 1.43863,-0.98544 1.82295,-1.70385 0.27174,-0.50799 -0.27175,-1.19586 0,-1.70384 0.38431,-0.71841 1.43864,-0.98545 1.82295,-1.70385 0.27176,-0.50799 -0.42968,-1.30225 0,-1.70385 3.77175,-3.52532 -0.14744,5.38716 3.64591,-1.70385 0.54351,-1.01598 -0.5435,-2.39171 0,-3.40769 0.48052,-0.89825 3.16539,-2.50945 3.6459,-3.4077 0.27176,-0.50799 0,-1.1359 0,-1.70385 0.60765,-1.70384 0.75707,-3.61716 1.82296,-5.11154 0.33706,-0.47256 1.39328,0.4016 1.82296,0 0.85934,-0.8032 -0.5435,-2.39171 0,-3.40769 0.76862,-1.43681 2.87728,-1.97089 3.6459,-3.4077 0.27176,-0.50799 -0.42968,-1.30225 0,-1.70385 0.42968,-0.4016 1.39329,0.4016 1.82295,0 0.85936,-0.8032 -0.85934,-2.60449 0,-3.40769 0.42968,-0.4016 1.39329,0.4016 1.82297,0 0.85934,-0.8032 -0.85936,-2.60449 0,-3.4077 0.42966,-0.4016 1.39327,0.4016 1.82295,0 0.42968,-0.4016 -0.42968,-1.30224 0,-1.70384 0.42968,-0.4016 1.39327,0.4016 1.82295,0 0.85936,-0.80321 -0.85935,-2.6045 0,-3.4077 0.85936,-0.8032 2.78656,0.8032 3.64591,0 0.42967,-0.4016 -0.42967,-1.30225 0,-1.70385 0.42967,-0.4016 1.21531,0 1.82296,0 1.26793,0 8.45553,0.30809 9.11476,0 0.76863,-0.3592 1.05434,-1.34464 1.82295,-1.70384 0.5435,-0.254 1.39329,0.4016 1.82297,0 0.42966,-0.4016 -0.27175,-1.19586 0,-1.70385 6.04597,-5.65095 -0.85936,1.6064 1.82295,-3.4077 0.38431,-0.7184 1.43863,-0.98544 1.82295,-1.70384 0.27176,-0.50799 -0.27175,-1.19586 0,-1.70385 0.38432,-0.71841 1.43865,-0.98544 1.82295,-1.70385 0.27176,-0.50799 -0.42967,-1.30225 0,-1.70385 0.42968,-0.4016 1.39329,0.4016 1.82296,0 0.42967,-0.4016 -0.27175,-1.19586 0,-1.70384 0.38431,-0.71841 1.43864,-0.98545 1.82296,-1.70385 0.49446,-0.92432 -0.4988,-6.34918 0,-6.81539 0.37267,-0.34833 4.74607,0.33778 5.46886,0 0.76862,-0.35921 1.05432,-1.34465 1.82295,-1.70385 0.5435,-0.25399 1.27946,0.25399 1.82296,0 0.34895,-0.16308 7.11734,-6.48924 7.29181,-6.81539 0.27175,-0.50799 -0.42966,-1.30225 0,-1.70385 0.42968,-0.4016 1.39328,0.4016 1.82295,0 0.002,-0.002 -0.004,-5.10382 0,-5.11154 0.5435,-1.52397 2.87728,-1.97089 3.64592,-3.4077 0.5435,-1.01597 -0.54351,-2.39171 0,-3.40769 0.38431,-0.71841 1.43863,-0.98544 1.82295,-1.70385 0.49446,-0.92431 -0.4988,-6.34918 0,-6.81539 0.42968,-0.4016 1.27944,0.254 1.82294,0 0.76864,-0.3592 1.05434,-1.34464 1.82297,-1.70385 0.5435,-0.25399 1.39328,0.4016 1.82295,0 0.42968,-0.4016 -0.27176,-1.19585 0,-1.70384 0.38431,-0.71841 1.34627,-1.03555 1.82296,-1.70385 3.45345,0.19403 1.21529,-3.97565 1.82294,-5.11154 0.38432,-0.71841 1.43865,-0.98545 1.82296,-1.70385 0.27176,-0.50799 -0.27175,-1.19586 0,-1.70385 0.38431,-0.7184 1.5512,-0.94186 1.82296,-1.70385 0.38431,-1.0776 -0.5435,-2.39171 0,-3.40769 0.27174,-0.50799 1.39328,0.4016 1.82295,0 0.85936,-0.8032 -0.38432,-2.33009 0,-3.4077 0.42968,-1.2048 1.39328,-2.20289 1.82295,-3.40769 0.19216,-0.53881 -0.14737,-1.15286 0,-1.70385 0.46605,-1.74239 1.35691,-3.36915 1.82296,-5.11154 0.14738,-0.55099 -0.27175,-1.19586 0,-1.70385 0.3843,-0.71841 1.43864,-0.98544 1.82295,-1.70385 0.54351,-1.01598 -0.85935,-2.60449 0,-3.40769 0.42968,-0.4016 1.39328,0.4016 1.82296,0 0.37268,-0.34833 -0.36139,-4.43598 0,-5.11155 0.38431,-0.7184 1.43864,-0.98544 1.82294,-1.70384 0.49447,-0.92432 -0.49879,-6.34918 0,-6.81539 0.42969,-0.4016 1.39329,0.4016 1.82297,0 0.42966,-0.4016 0,-1.1359 0,-1.70385 0,-0.56795 0,-1.1359 0,-1.70385 0,-3.40769 0,-6.81539 0,-10.22308 0,-0.76735 -0.2774,-4.59301 0,-5.11155 2.25263,-4.21089 1.82295,0.58813 1.82295,-3.40769 0,-0.62572 -0.0734,-6.74683 0,-6.81539 0.42968,-0.4016 1.39328,0.4016 1.82296,0 1.21192,-1.13275 -1.21194,-2.27495 0,-3.4077 0.42967,-0.4016 1.27946,0.254 1.82295,0 7.58669,-3.5455 -1.94881,0.11763 1.82295,-3.40769 3.77176,-3.52532 -0.14743,5.38716 3.64591,-1.70385 0.27175,-0.50799 -0.42967,-1.30225 0,-1.70385 0.96077,-0.898 2.51536,-0.99939 3.64591,-1.70385 1.43004,-0.89107 2.21586,-2.51662 3.64591,-3.40769 1.13054,-0.70445 2.51535,-0.99939 3.64591,-1.70385 1.43004,-0.89107 2.21586,-2.51662 3.6459,-3.40769 1.13055,-0.70446 2.51536,-0.9994 3.64591,-1.70385 0.71502,-0.44554 1.21531,-1.1359 1.82296,-1.70385 0.60765,-0.56795 1.43864,-0.98544 1.82295,-1.70385 0.27175,-0.50799 -0.42968,-1.30224 0,-1.70384 0.42968,-0.4016 1.39329,0.4016 1.82295,0 0.0826,-0.0772 0,-7.71588 0,-8.51924 0,-8.51924 0,-17.03848 0,-25.55772 0,-4.54359 0,-9.08718 0,-13.63078 0,-0.56794 -0.42966,-1.30224 0,-1.70384 0.42968,-0.4016 1.39328,-0.4016 1.82296,0 0.42967,0.4016 -0.27175,1.19586 0,1.70384 0.38431,0.71841 1.43864,0.98545 1.82295,1.70385 0.27175,0.50799 -0.27175,1.19586 0,1.70385 0.38432,0.7184 1.43864,0.98544 1.82296,1.70385 0.5435,1.01598 -0.85935,2.60449 0,3.40769 0.42967,0.4016 1.39328,-0.4016 1.82295,0 0.42968,0.4016 -0.27175,1.19586 0,1.70385 0.38431,0.7184 1.43864,0.98544 1.82296,1.70385 0.9724,1.81775 -0.97241,1.58994 0,3.40769 0.38431,0.71841 1.43864,0.98544 1.82295,1.70385 0.27175,0.50799 -0.27175,1.19586 0,1.70385 0.3843,0.7184 1.43864,0.98544 1.82295,1.70385 0.40559,0.75817 -0.27793,6.03607 0,6.81539 0.27175,0.76198 1.55121,0.94186 1.82296,1.70384 0.38431,1.07761 -0.23834,2.29386 0,3.4077 0.37684,1.76113 1.44611,3.35041 1.82295,5.11154 0.23834,1.11384 0,2.2718 0,3.4077 0,0.56795 -0.27175,1.19585 0,1.70384 2.77961,5.19599 1.44517,-3.11624 3.64591,5.11155 0.58951,2.20396 -0.58951,4.61142 0,6.81539 0.32954,1.23205 1.49341,2.17564 1.82295,3.40769 0.29475,1.10199 -0.38431,2.33009 0,3.4077 0.27175,0.76198 1.55121,0.94186 1.82296,1.70384 0.27794,0.77932 -0.40558,6.05722 0,6.81539 0.38431,0.71841 1.43864,0.98545 1.82295,1.70385 0.27175,0.50799 -0.42967,1.30225 0,1.70385 0.42968,0.4016 1.39328,-0.4016 1.82296,0 0.42967,0.4016 0,1.1359 0,1.70385 0,1.18509 -0.32961,7.90307 0,8.51924 0.38431,0.7184 1.43864,0.98544 1.82295,1.70384 0.57502,1.07491 -0.57503,7.44434 0,8.51924 0.38431,0.71841 1.43864,0.98544 1.82296,1.70385 0.27175,0.50799 0,1.1359 0,1.70385 0,0.56795 0,1.13589 0,1.70384 0,3.4077 0,6.81539 0,10.22309 0,0.56795 0,1.1359 0,1.70385 0,0.56795 -0.42968,1.30224 0,1.70384 4.86121,0 -0.60765,-0.56794 1.82295,1.70385 0.42967,0.4016 1.39328,-0.4016 1.82295,0 0.42968,0.4016 -0.42967,1.30225 0,1.70385 0.42968,0.4016 1.21531,0 1.82296,0 0.60765,0.56795 1.34627,1.03554 1.82296,1.70385 0.60764,1.1359 1.21529,2.27179 1.82294,3.40769 0,0.56795 -0.27175,1.19586 0,1.70385 0.38433,0.7184 1.43865,0.98544 1.82296,1.70385 0.5435,1.01598 -0.85934,2.60449 0,3.40769 0.42968,0.4016 1.39329,-0.4016 1.82295,0 0.85936,0.8032 -0.3843,2.33009 0,3.4077 0.42968,1.2048 1.39328,2.20289 1.82297,3.40769 0.19214,0.53881 0,1.1359 0,1.70385 0,1.71586 -0.33605,9.28083 0,10.22309 0.27174,0.76198 1.43863,0.98544 1.82294,1.70384 0.27175,0.50799 0,1.1359 0,1.70385 0,0.56795 0,1.1359 0,1.70385 0,0.62571 -0.0734,6.74682 0,6.81539 0.85934,0.8032 2.78657,-0.8032 3.64591,0 0.0455,0.0425 0,7.87914 0,8.51924 0,6.81539 0,13.63078 0,20.44617 0,0.16758 -0.094,10.04737 0,10.22308 0.27175,0.50799 1.39329,-0.4016 1.82296,0 0.42967,0.4016 -0.42967,1.30225 0,1.70385 0.42967,0.4016 1.39327,-0.4016 1.82295,0 0.42966,0.4016 -0.42968,1.30225 0,1.70385 0.42966,0.4016 1.27945,-0.254 1.82295,0 0.76864,0.3592 1.05433,1.34464 1.82296,1.70385 1.94481,0.90887 1.70109,-0.90888 3.6459,0 0.76863,0.3592 1.21531,1.13589 1.82296,1.70384 1.2153,0 2.49297,-0.3592 3.64592,0 0.81524,0.254 1.00769,1.44986 1.82294,1.70385 12.51443,3.89892 -8.49112,-6.52394 9.11477,1.70385 0.76864,0.3592 1.05433,1.34464 1.82295,1.70385 0.54351,0.25399 1.27947,-0.254 1.82297,0 0.76861,0.3592 1.05432,1.34464 1.82294,1.70384 0.5435,0.254 1.21531,0 1.82296,0 0.60765,0.56795 1.05433,1.34465 1.82295,1.70385 0.5435,0.254 1.27946,-0.25399 1.82296,0 7.5867,3.5455 -1.9488,-0.11762 1.82296,3.4077 0.42967,0.4016 1.27944,-0.254 1.82294,0 7.58671,3.5455 -1.9488,-0.11763 1.82296,3.40769 0.42967,0.4016 1.39328,-0.4016 1.82296,0 0.0734,0.0686 0,6.18968 0,6.81539 0,0.56795 0,1.1359 0,1.70385 0,0.56795 -0.42968,1.30225 0,1.70385 0.42967,0.4016 1.39327,-0.4016 1.82296,0 0.42967,0.4016 0,1.1359 0,1.70384 0,0.56795 0,1.1359 0,1.70385 0,6.24744 0,12.49488 0,18.74233 0,0.41322 -0.0586,5.05674 0,5.11154 0.85934,0.8032 2.78655,-0.8032 3.64589,0 0.42968,0.4016 0,1.1359 0,1.70385 0.60766,0 1.39329,-0.40161 1.82297,0 0.42966,0.4016 -0.42968,1.30224 0,1.70384 0.43865,0.41 6.85315,-0.41 7.29181,0 0.42967,0.4016 -0.42967,1.30225 0,1.70385 0.42967,0.4016 1.39328,-0.4016 1.82296,0 0.42967,0.4016 -0.42968,1.30225 0,1.70385 0.42967,0.4016 1.39327,-0.4016 1.82294,0 0.42968,0.4016 -0.42967,1.30225 0,1.70385 3.77176,3.52532 -0.14743,-5.38716 3.64592,1.70384 0.54349,1.01598 -0.85935,2.6045 0,3.4077 0.42967,0.4016 1.39328,-0.4016 1.82295,0 0.42968,0.4016 -0.27176,1.19586 0,1.70385 0.38431,0.7184 1.43864,0.98544 1.82295,1.70384 0.27175,0.50799 -0.27174,1.19586 0,1.70385 0.38432,0.71841 1.43865,0.98544 1.82295,1.70385 0.27176,0.50799 -0.42966,1.30225 0,1.70385 0.42968,0.4016 1.39329,-0.4016 1.82297,0 0.42966,0.4016 -0.42968,1.30224 0,1.70384 0.42966,0.4016 1.39327,-0.4016 1.82295,0 0.42968,0.4016 -0.42968,1.30225 0,1.70385 0.42968,0.4016 1.39327,-0.4016 1.82295,0 0.42967,0.4016 -0.42968,1.30225 0,1.70385 1.21193,1.13274 2.43399,-1.13274 3.64591,0 0.42967,0.4016 -0.42967,1.30225 0,1.70385 0.42967,0.4016 1.21531,0 1.82296,0 0.60765,0 1.2153,0 1.82294,0 7.89947,0 15.79894,0 23.69841,0 2.43061,0 4.86122,0 7.29181,0 0.60765,0 1.2153,0 1.82296,0 0.60766,0 1.82296,-0.56795 1.82296,0 0,0.56795 -2.43062,0 -1.82296,0 1.21531,0 2.49297,-0.35921 3.64591,0 0.81525,0.25399 1.05433,1.34464 1.82295,1.70384 0.5435,0.254 1.27946,-0.25399 1.82295,0 1.53725,0.71841 2.10867,2.68929 3.64592,3.4077 1.08699,0.50799 2.5589,-0.50799 3.6459,0 0.76863,0.3592 1.05433,1.34464 1.82296,1.70385 0.5435,0.25399 1.39328,-0.4016 1.82296,0 0.42967,0.4016 -0.42968,1.30224 0,1.70384 0.42967,0.40161 1.39326,-0.4016 1.82294,0 2.43062,2.2718 -3.03825,1.70385 1.82295,1.70385 1.21532,0 2.43062,0 3.64592,0 0.60765,0 1.82295,-0.56795 1.82295,0 0,0.56795 -1.82295,-0.56795 -1.82295,0 0,3.61665 8.48775,-0.0907 -2.99221,3.00037"
     id="path1399"
     inkscape:connector-curvature="0" />
</svg>
