<?xml version="1.0" encoding="UTF-8" standalone="no"?>
<!-- Created with Inkscape (http://www.inkscape.org/) -->

<svg
   xmlns:dc="http://purl.org/dc/elements/1.1/"
   xmlns:cc="http://creativecommons.org/ns#"
   xmlns:rdf="http://www.w3.org/1999/02/22-rdf-syntax-ns#"
   xmlns:svg="http://www.w3.org/2000/svg"
   xmlns="http://www.w3.org/2000/svg"
   xmlns:sodipodi="http://sodipodi.sourceforge.net/DTD/sodipodi-0.dtd"
   xmlns:inkscape="http://www.inkscape.org/namespaces/inkscape"
   version="1.1"
   id="svg826"
   width="981.33331"
   height="1137.3333"
   viewBox="0 0 981.33331 1137.3333"
   sodipodi:docname="logo.svg"
   inkscape:version="0.92.2 (5c3e80d, 2017-08-06)">
  <metadata
     id="metadata832">
    <rdf:RDF>
      <cc:Work
         rdf:about="">
        <dc:format>image/svg+xml</dc:format>
        <dc:type
           rdf:resource="http://purl.org/dc/dcmitype/StillImage" />
        <dc:title />
      </cc:Work>
    </rdf:RDF>
  </metadata>
  <defs
     id="defs830" />
  <sodipodi:namedview
     pagecolor="#ffffff"
     bordercolor="#666666"
     borderopacity="1"
     objecttolerance="10"
     gridtolerance="10"
     guidetolerance="10"
     inkscape:pageopacity="0"
     inkscape:pageshadow="2"
     inkscape:window-width="1366"
     inkscape:window-height="705"
     id="namedview828"
     showgrid="true"
     inkscape:zoom="0.58690696"
     inkscape:cx="307.95461"
     inkscape:cy="490.78886"
     inkscape:window-x="-8"
     inkscape:window-y="-8"
     inkscape:window-maximized="1"
     inkscape:current-layer="svg826">
    <inkscape:grid
       type="xygrid"
       id="grid1387" />
  </sodipodi:namedview>
  <path
     sodipodi:type="star"
     style="fill:#d40000;stroke:#800000;stroke-width:28.60300064;stroke-linejoin:miter;stroke-miterlimit:4;stroke-dasharray:none;stroke-dashoffset:0"
     id="path1393"
     sodipodi:sides="6"
     sodipodi:cx="460"
     sodipodi:cy="637.33325"
     sodipodi:r1="380"
     sodipodi:r2="329.08966"
     sodipodi:arg1="-1.5707963"
     sodipodi:arg2="-1.0471976"
     inkscape:flatsided="true"
     inkscape:rounded="0"
     inkscape:randomized="0"
     d="m 460.00001,257.33325 329.08965,190.00001 -10e-6,380 -329.08966,190.00004 -329.08965,-190.00006 1e-5,-380 z"
     transform="matrix(0.59116058,0,0,0.52631578,53.521309,121.8947)" />
  <text
     xml:space="preserve"
     style="font-style:normal;font-weight:normal;font-size:17.84949303px;line-height:1.25;font-family:sans-serif;letter-spacing:0px;word-spacing:0px;fill:#ffffff;fill-opacity:1;stroke:#ffffff;stroke-width:0.55779666"
     x="215.15369"
     y="610.79736"
     id="text1397"
     transform="scale(1.0598137,0.94356205)"><tspan
       sodipodi:role="line"
       id="tspan1395"
       x="215.15369"
       y="610.79736"
       style="font-size:63.96068573px;stroke-width:0.55779666">rtadfr</tspan></text>
  <path
     style="fill:#ff8080;stroke:#ffffff;stroke-width:2.88481832;stroke-linecap:butt;stroke-linejoin:miter;stroke-miterlimit:4;stroke-dasharray:none;stroke-opacity:1"
     d="m 180.02967,488.91219 c 8.41474,1.26099 5.639,-0.36656 9.57012,2.90467 0.35922,0.29892 0.62327,0.70771 1.07765,0.89677 0.3213,0.13368 0.75636,-0.13369 1.07766,0 0.45439,0.18905 0.71844,0.59784 1.07766,0.89676 0.35922,0.29892 0.85047,0.51865 1.07766,0.89676 0.16065,0.26736 -0.25401,0.68539 0,0.89676 0.25401,0.21137 0.82365,-0.21137 1.07766,0 0.47896,0.39856 -0.83818,1.69388 1.07766,0.89676 0.45439,-0.18905 0.62327,-0.70771 1.07765,-0.89676 0.3213,-0.13368 0.82366,0.21137 1.07767,0 2.61741,-2.17806 -0.32046,-1.31683 2.15531,-2.69028 0.66833,-0.37077 1.58734,-0.42413 2.15532,-0.89677 0.50801,-0.42273 -0.32129,-1.2588 0,-1.79352 0.22719,-0.37811 0.85047,-0.51866 1.07766,-0.89676 0.16064,-0.26736 -0.25401,-0.6854 0,-0.89676 0.254,-0.21137 0.82365,0.21136 1.07765,0 0.72285,-0.60151 -0.72284,-1.19203 0,-1.79353 0.72285,-0.6015 1.43249,0.6015 2.15533,0 0.254,-0.21137 -0.25401,-0.68539 0,-0.89676 0.254,-0.21137 0.82364,-0.21137 1.07765,0 0.254,0.21137 -0.25401,0.68539 0,0.89676 0.254,0.21137 0.75636,-0.13368 1.07766,0 0.90876,0.37811 1.24656,1.41542 2.15532,1.79353 0.64259,0.26736 1.6473,-0.42274 2.15532,0 0.254,0.21136 -0.25401,0.68539 0,0.89676 0.0346,0.0288 2.97161,0 3.23297,0 0.35922,0 0.82365,0.21137 1.07766,0 0.25401,-0.21137 -0.25401,-0.6854 0,-0.89676 0.25401,-0.21137 0.75636,0.13367 1.07766,0 0.45438,-0.18906 0.62328,-0.70771 1.07766,-0.89677 0.3213,-0.13368 0.96406,0.28359 1.07766,0 0.34078,-0.85074 -0.34079,-1.83954 0,-2.69028 0.22719,-0.56716 1.83401,0.53472 2.15531,0 0.3213,-0.53473 -0.22718,-1.22636 0,-1.79353 0.16065,-0.40104 0.85047,-0.51865 1.07767,-0.89676 0.16064,-0.26736 -0.25401,-0.68539 0,-0.89676 0.254,-0.21137 0.82364,0.21137 1.07765,0 0.72284,-0.6015 -0.72284,-1.19202 0,-1.79353 0.25401,-0.21136 1.07766,-0.29892 1.07766,0 0,0.29893 -1.43688,0 -1.07766,0 0.71844,0 1.47374,-0.18905 2.15532,0 0.48194,0.13369 0.62327,0.70772 1.07766,0.89677 0.32129,0.13368 0.71844,0 1.07766,0 0.35921,0 0.75635,0.13368 1.07765,0 0.45438,-0.18905 0.62328,-0.70771 1.07766,-0.89677 0.3213,-0.13367 0.82365,0.21137 1.07766,0 0.25401,-0.21136 -0.25401,-0.68538 0,-0.89675 0.25401,-0.21137 0.82366,0.21137 1.07766,0 0.25401,-0.21137 -0.254,-0.6854 0,-0.89677 0.25401,-0.21136 0.82365,0.21137 1.07766,0 0.254,-0.21136 -0.16064,-0.6294 0,-0.89676 0.6466,-1.07612 2.58638,-1.61417 3.23298,-2.69028 0.16064,-0.26737 -0.25401,-0.6854 0,-0.89677 0.25401,-0.21137 0.82364,0.21137 1.07765,0 0.25401,-0.21137 -0.25401,-0.68539 0,-0.89676 0.25401,-0.21137 0.82366,0.21137 1.07766,0 2.22971,-1.85543 -3.4073,0.0725 1.07766,-1.79352 0.32129,-0.13368 0.71844,0 1.07766,0 0.35922,0 0.71844,0 1.07765,0 0.35922,0 0.75636,-0.13368 1.07767,0 1.29318,0.53806 1.93978,2.15223 3.23297,2.69028 0.3213,0.13369 0.75636,-0.13368 1.07766,0 0.45439,0.18906 0.62328,0.70771 1.07766,0.89677 0.32129,0.13368 0.82365,-0.21137 1.07766,0 0.25401,0.21136 -0.25401,0.68539 0,0.89676 0.0346,0.0288 2.97161,0 3.23298,0 0.35921,0 0.82365,0.21137 1.07766,0 0.254,-0.21137 -0.25401,-0.6854 0,-0.89676 0.254,-0.21137 0.75636,0.13368 1.07765,0 0.90877,-0.37811 1.24656,-1.41542 2.15532,-1.79353 0.32129,-0.13368 0.82365,0.21137 1.07766,0 0.50801,-0.42274 -0.50802,-1.37078 0,-1.79352 0.254,-0.21137 0.75636,0.13368 1.07766,0 2.38276,-0.9914 0.33442,-0.55657 1.07765,-1.79353 0.56814,-0.94552 1.58719,-0.848 2.15532,-1.79352 0.16065,-0.26736 -0.16065,-0.6294 0,-0.89676 0.22719,-0.37811 0.85047,-0.51865 1.07766,-0.89676 0.16064,-0.26737 -0.16065,-0.6294 0,-0.89676 0.22719,-0.37811 0.85047,-0.51866 1.07766,-0.89677 0.16065,-0.26736 -0.25401,-0.68539 0,-0.89676 2.22971,-1.85543 -0.0872,2.83535 2.15532,-0.89676 0.3213,-0.53473 -0.3213,-1.2588 0,-1.79352 0.28406,-0.47277 1.87125,-1.32077 2.15531,-1.79353 0.16065,-0.26736 0,-0.59784 0,-0.89676 0.35922,-0.89676 0.44755,-1.90377 1.07766,-2.69029 0.19926,-0.24871 0.82365,0.21137 1.07766,0 0.50801,-0.42273 -0.32129,-1.25879 0,-1.79352 0.45438,-0.75621 1.70094,-1.03731 2.15531,-1.79352 0.16066,-0.26737 -0.25401,-0.6854 0,-0.89677 0.25401,-0.21137 0.82366,0.21137 1.07766,0 0.50802,-0.42273 -0.50801,-1.37078 0,-1.79352 0.25401,-0.21137 0.82366,0.21137 1.07767,0 0.50801,-0.42273 -0.50802,-1.37078 0,-1.79352 0.254,-0.21137 0.82364,0.21136 1.07765,0 0.25401,-0.21137 -0.25401,-0.68539 0,-0.89676 0.25401,-0.21137 0.82365,0.21137 1.07766,0 0.50802,-0.42274 -0.50801,-1.37079 0,-1.79353 0.50802,-0.42274 1.6473,0.42274 2.15532,0 0.254,-0.21137 -0.25401,-0.68539 0,-0.89676 0.254,-0.21137 0.71844,0 1.07766,0 0.74955,0 4.99858,0.16215 5.38829,0 0.45438,-0.18905 0.62328,-0.70771 1.07765,-0.89676 0.3213,-0.13368 0.82366,0.21137 1.07767,0 0.254,-0.21137 -0.16065,-0.6294 0,-0.89676 3.57414,-2.97419 -0.50802,0.84547 1.07766,-1.79353 0.22719,-0.3781 0.85046,-0.51865 1.07765,-0.89676 0.16066,-0.26736 -0.16064,-0.6294 0,-0.89676 0.2272,-0.37811 0.85048,-0.51865 1.07766,-0.89676 0.16065,-0.26737 -0.254,-0.6854 0,-0.89677 0.25401,-0.21136 0.82366,0.21137 1.07766,0 0.25401,-0.21136 -0.16065,-0.6294 0,-0.89675 0.22719,-0.37811 0.85047,-0.51866 1.07766,-0.89677 0.29231,-0.48648 -0.29487,-3.34167 0,-3.58704 0.22031,-0.18334 2.80569,0.17777 3.23298,0 0.45438,-0.18906 0.62327,-0.70771 1.07766,-0.89677 0.32129,-0.13368 0.75636,0.13368 1.07766,0 0.20628,-0.0858 4.20749,-3.41539 4.31063,-3.58704 0.16065,-0.26737 -0.254,-0.6854 0,-0.89677 0.25401,-0.21137 0.82365,0.21137 1.07765,0 10e-4,-0.001 -0.002,-2.68622 0,-2.69028 0.3213,-0.80209 1.70094,-1.03731 2.15533,-1.79353 0.32129,-0.53472 -0.3213,-1.25879 0,-1.79352 0.22719,-0.37811 0.85046,-0.51865 1.07765,-0.89676 0.29231,-0.48648 -0.29487,-3.34168 0,-3.58705 0.25401,-0.21137 0.75636,0.13368 1.07765,0 0.45439,-0.18905 0.62329,-0.70771 1.07767,-0.89676 0.3213,-0.13368 0.82365,0.21137 1.07766,0 0.25401,-0.21137 -0.16066,-0.6294 0,-0.89676 0.22719,-0.37811 0.79586,-0.54503 1.07766,-0.89676 2.04154,0.10212 0.71843,-2.09245 1.07765,-2.69029 0.2272,-0.37811 0.85047,-0.51866 1.07766,-0.89676 0.16066,-0.26736 -0.16064,-0.6294 0,-0.89676 0.22719,-0.37811 0.91701,-0.49572 1.07767,-0.89677 0.22718,-0.56716 -0.3213,-1.25879 0,-1.79352 0.16064,-0.26736 0.82365,0.21137 1.07765,0 0.50802,-0.42274 -0.22719,-1.22636 0,-1.79352 0.25401,-0.63411 0.82365,-1.15942 1.07766,-1.79353 0.1136,-0.28358 -0.0871,-0.60676 0,-0.89676 0.27551,-0.91705 0.80215,-1.77324 1.07766,-2.69028 0.0871,-0.29 -0.16065,-0.6294 0,-0.89677 0.22718,-0.37811 0.85047,-0.51865 1.07766,-0.89676 0.3213,-0.53473 -0.50802,-1.37078 0,-1.79352 0.25401,-0.21137 0.82365,0.21137 1.07766,0 0.22031,-0.18333 -0.21364,-2.33473 0,-2.69029 0.22719,-0.37811 0.85047,-0.51865 1.07765,-0.89676 0.29231,-0.48648 -0.29487,-3.34167 0,-3.58705 0.25401,-0.21136 0.82366,0.21137 1.07767,0 0.25399,-0.21136 0,-0.59784 0,-0.89676 0,-0.29892 0,-0.59784 0,-0.89676 0,-1.79352 0,-3.58705 0,-5.38057 0,-0.40387 -0.16399,-2.41737 0,-2.69029 1.33166,-2.21626 1.07765,0.30954 1.07765,-1.79352 0,-0.32933 -0.0434,-3.55096 0,-3.58705 0.25401,-0.21137 0.82365,0.21137 1.07766,0 0.71644,-0.59618 -0.71645,-1.19734 0,-1.79352 0.25401,-0.21137 0.75637,0.13368 1.07766,0 4.48495,-1.86606 -1.15206,0.0619 1.07766,-1.79352 2.22971,-1.85544 -0.0872,2.83534 2.15532,-0.89677 0.16064,-0.26736 -0.25401,-0.68539 0,-0.89676 0.56796,-0.47263 1.48698,-0.526 2.15531,-0.89676 0.84539,-0.46899 1.30993,-1.32454 2.15532,-1.79353 0.66833,-0.37076 1.48698,-0.52599 2.15532,-0.89676 0.84538,-0.46898 1.30993,-1.32454 2.15531,-1.79352 0.66834,-0.37077 1.48698,-0.526 2.15532,-0.89676 0.42269,-0.2345 0.71844,-0.59784 1.07766,-0.89677 0.35922,-0.29892 0.85047,-0.51865 1.07766,-0.89676 0.16065,-0.26736 -0.25401,-0.68539 0,-0.89676 0.25401,-0.21137 0.82366,0.21137 1.07765,0 0.0488,-0.0406 0,-4.06099 0,-4.48381 0,-4.48381 0,-8.96762 0,-13.45143 0,-2.39136 0,-4.78272 0,-7.17409 0,-0.29892 -0.25399,-0.68539 0,-0.89676 0.25401,-0.21137 0.82366,-0.21137 1.07767,0 0.254,0.21137 -0.16065,0.6294 0,0.89676 0.22719,0.37811 0.85046,0.51865 1.07765,0.89676 0.16065,0.26736 -0.16064,0.6294 0,0.89676 0.2272,0.37811 0.85047,0.51866 1.07767,0.89677 0.32129,0.53472 -0.50802,1.37078 0,1.79352 0.254,0.21137 0.82365,-0.21137 1.07765,0 0.25401,0.21137 -0.16065,0.6294 0,0.89676 0.22719,0.37811 0.85047,0.51865 1.07766,0.89676 0.57485,0.95671 -0.57485,0.83681 0,1.79352 0.22719,0.37811 0.85047,0.51866 1.07766,0.89677 0.16065,0.26736 -0.16065,0.6294 0,0.89676 0.22718,0.37811 0.85047,0.51865 1.07766,0.89676 0.23976,0.39904 -0.16431,3.17688 0,3.58705 0.16064,0.40104 0.91701,0.49572 1.07766,0.89676 0.22719,0.56716 -0.1409,1.20729 0,1.79353 0.22277,0.92691 0.85488,1.76337 1.07765,2.69028 0.1409,0.58623 0,1.19568 0,1.79353 0,0.29892 -0.16064,0.62939 0,0.89675 1.6432,2.73474 0.85433,-1.64012 2.15532,2.69029 0.3485,1.15998 -0.34849,2.42707 0,3.58705 0.19481,0.64845 0.88285,1.14507 1.07766,1.79352 0.17424,0.58 -0.22719,1.22636 0,1.79353 0.16065,0.40104 0.91701,0.49571 1.07766,0.89676 0.16431,0.41016 -0.23976,3.18801 0,3.58704 0.22719,0.37811 0.85047,0.51866 1.07766,0.89677 0.16064,0.26736 -0.25401,0.68539 0,0.89676 0.25401,0.21137 0.82365,-0.21137 1.07766,0 0.254,0.21137 0,0.59784 0,0.89676 0,0.62373 -0.19485,4.15951 0,4.48381 0.22719,0.37811 0.85047,0.51866 1.07766,0.89676 0.33992,0.56574 -0.33994,3.91807 0,4.48381 0.22718,0.37811 0.85046,0.51865 1.07766,0.89676 0.16065,0.26737 0,0.59785 0,0.89677 0,0.29892 0,0.59783 0,0.89676 0,1.79352 0,3.58704 0,5.38057 0,0.29892 0,0.59784 0,0.89676 0,0.29892 -0.25401,0.68539 0,0.89676 2.87375,0 -0.35922,-0.29892 1.07765,0.89676 0.25401,0.21137 0.82366,-0.21137 1.07766,0 0.25401,0.21137 -0.254,0.6854 0,0.89677 0.25401,0.21136 0.71844,0 1.07766,0 0.35922,0.29892 0.79586,0.54502 1.07766,0.89676 0.35922,0.59784 0.71844,1.19568 1.07765,1.79352 0,0.29892 -0.16064,0.6294 0,0.89676 0.2272,0.37811 0.85048,0.51866 1.07767,0.89677 0.32129,0.53472 -0.50801,1.37078 0,1.79352 0.25401,0.21137 0.82365,-0.21137 1.07765,0 0.50802,0.42273 -0.22718,1.22636 0,1.79352 0.25401,0.63411 0.82365,1.15942 1.07767,1.79353 0.11359,0.28358 0,0.59784 0,0.89676 0,0.90308 -0.19866,4.88465 0,5.38057 0.16064,0.40104 0.85046,0.51865 1.07765,0.89676 0.16065,0.26736 0,0.59784 0,0.89676 0,0.29892 0,0.59784 0,0.89677 0,0.32932 -0.0434,3.55095 0,3.58704 0.50801,0.42274 1.64731,-0.42273 2.15532,0 0.0269,0.0224 0,4.14692 0,4.48381 0,3.58705 0,7.1741 0,10.76115 0,0.0882 -0.0556,5.28809 0,5.38056 0.16065,0.26737 0.82366,-0.21136 1.07766,0 0.254,0.21137 -0.254,0.6854 0,0.89677 0.254,0.21137 0.82365,-0.21137 1.07766,0 0.254,0.21137 -0.25401,0.68539 0,0.89676 0.254,0.21137 0.75636,-0.13368 1.07765,0 0.45439,0.18905 0.62328,0.70771 1.07767,0.89676 1.14969,0.47836 1.00561,-0.47835 2.15531,0 0.45438,0.18906 0.71844,0.59784 1.07766,0.89676 0.71844,0 1.47375,-0.18905 2.15532,0 0.48194,0.13369 0.59571,0.76309 1.07765,0.89676 7.39804,2.05207 -5.01961,-3.43365 5.3883,0.89677 0.45439,0.18905 0.62328,0.7077 1.07765,0.89676 0.3213,0.13368 0.75638,-0.13368 1.07767,0 0.45437,0.18905 0.62327,0.70771 1.07765,0.89676 0.3213,0.13368 0.71844,0 1.07766,0 0.35922,0.29892 0.62328,0.70771 1.07766,0.89676 0.3213,0.13369 0.75637,-0.13368 1.07766,0 4.48496,1.86605 -1.15205,-0.0619 1.07766,1.79353 0.25401,0.21137 0.75636,-0.13369 1.07765,0 4.48497,1.86605 -1.15205,-0.0619 1.07767,1.79352 0.254,0.21137 0.82365,-0.21137 1.07766,0 0.0434,0.0361 0,3.25773 0,3.58705 0,0.29892 0,0.59784 0,0.89676 0,0.29892 -0.25401,0.68539 0,0.89676 0.254,0.21137 0.82364,-0.21137 1.07766,0 0.254,0.21137 0,0.59784 0,0.89676 0,0.29892 0,0.59784 0,0.89676 0,3.28813 0,6.57626 0,9.86439 0,0.21748 -0.0346,2.66144 0,2.69028 0.50801,0.42274 1.6473,-0.42273 2.15531,0 0.25401,0.21137 0,0.59784 0,0.89677 0.35922,0 0.82365,-0.21138 1.07766,0 0.254,0.21136 -0.25401,0.68538 0,0.89675 0.25932,0.21579 4.05132,-0.21579 4.31064,0 0.254,0.21137 -0.25401,0.6854 0,0.89677 0.254,0.21136 0.82365,-0.21137 1.07766,0 0.254,0.21136 -0.25401,0.68539 0,0.89676 0.254,0.21137 0.82364,-0.21137 1.07765,0 0.25401,0.21137 -0.25401,0.68539 0,0.89676 2.22971,1.85543 -0.0872,-2.83534 2.15532,0.89676 0.32129,0.53473 -0.50801,1.37079 0,1.79353 0.25401,0.21136 0.82365,-0.21137 1.07766,0 0.25401,0.21136 -0.16066,0.6294 0,0.89676 0.22719,0.3781 0.85047,0.51865 1.07765,0.89676 0.16065,0.26736 -0.16064,0.6294 0,0.89676 0.2272,0.37811 0.85048,0.51865 1.07766,0.89676 0.16065,0.26737 -0.254,0.6854 0,0.89677 0.25401,0.21137 0.82366,-0.21137 1.07767,0 0.254,0.21137 -0.25401,0.68539 0,0.89675 0.254,0.21137 0.82364,-0.21136 1.07765,0 0.25401,0.21137 -0.25401,0.6854 0,0.89677 0.25401,0.21137 0.82365,-0.21137 1.07766,0 0.254,0.21137 -0.25401,0.68539 0,0.89676 0.71645,0.59618 1.43888,-0.59618 2.15532,0 0.254,0.21137 -0.25401,0.6854 0,0.89676 0.254,0.21137 0.71844,0 1.07766,0 0.35922,0 0.71844,0 1.07765,0 4.66986,0 9.33971,0 14.00957,0 1.43688,0 2.87376,0 4.31063,0 0.35922,0 0.71843,0 1.07766,0 0.35922,0 1.07766,-0.29892 1.07766,0 0,0.29893 -1.43689,0 -1.07766,0 0.71844,0 1.47375,-0.18905 2.15532,0 0.48194,0.13368 0.62328,0.70771 1.07765,0.89676 0.3213,0.13369 0.75637,-0.13368 1.07766,0 0.90876,0.37811 1.24656,1.41542 2.15532,1.79353 0.64259,0.26736 1.51273,-0.26736 2.15532,0 0.45438,0.18905 0.62328,0.7077 1.07766,0.89676 0.32129,0.13368 0.82365,-0.21137 1.07766,0 0.254,0.21137 -0.25401,0.68539 0,0.89676 0.254,0.21137 0.82364,-0.21137 1.07765,0 1.43689,1.19568 -1.79609,0.89676 1.07766,0.89676 0.71845,0 1.43688,0 2.15532,0 0.35922,0 1.07766,-0.29892 1.07766,0 0,0.29892 -1.07766,-0.29892 -1.07766,0 0,1.9035 5.01762,-0.0477 -1.76888,1.57914"
     id="path1399"
     inkscape:connector-curvature="0" />
</svg>
